<?xml version="1.0"?>
<svg width="2100" height="2100" xmlns="http://www.w3.org/2000/svg" xmlns:svg="http://www.w3.org/2000/svg">
 <defs>
  <clipPath id="clip-0"/>
  <clipPath id="clip-1">
   <path clip-rule="nonzero" d="m1057.65,880.77l194.98,0c0,0 52.82,2.02 66.37,-40.32c13.55,-42.35 53,-232.45 53,-232.45c0,0 8.88,-21.61 -19.27,-29.67c-28.15,-8.07 -362.33,-36.3 -595.89,0c-28.99,4.5 -19.82,32.26 -19.82,32.26c0,0 34.43,193.56 47.98,235.91c13.55,42.34 71.93,34.27 71.93,34.27l200.72,0zm0,0" id="svg_1"/>
  </clipPath>
  <clipPath id="clip-2">
   <path clip-rule="nonzero" d="m1057.65,880.77l194.98,0c0,0 52.82,2.02 66.37,-40.32c13.55,-42.35 53,-232.45 53,-232.45c0,0 8.88,-21.61 -19.27,-29.67c-28.15,-8.07 -362.33,-36.3 -595.89,0c-28.99,4.5 -19.82,32.26 -19.82,32.26c0,0 34.43,193.56 47.98,235.91c13.55,42.34 71.93,34.27 71.93,34.27l200.72,0" id="svg_2"/>
  </clipPath>
  <linearGradient id="linear-pattern-0" x1="0.5" x2="0.5" y1="1" y2="0">
   <stop offset="0" stop-color="rgb(13.725281%, 12.156677%, 12.548828%)"/>
   <stop offset="0.02" stop-color="rgb(13.725281%, 12.156677%, 12.548828%)"/>
   <stop offset="0.02" stop-color="rgb(13.729858%, 12.275696%, 12.715149%)"/>
   <stop offset="0.03" stop-color="rgb(13.757324%, 12.875366%, 13.549805%)"/>
   <stop offset="0.03" stop-color="rgb(13.778687%, 13.354492%, 14.216614%)"/>
   <stop offset="0.04" stop-color="rgb(13.798523%, 13.833618%, 14.883423%)"/>
   <stop offset="0.04" stop-color="rgb(13.819885%, 14.312744%, 15.551758%)"/>
   <stop offset="0.04" stop-color="rgb(13.841248%, 14.79187%, 16.218567%)"/>
   <stop offset="0.05" stop-color="rgb(13.86261%, 15.270996%, 16.886902%)"/>
   <stop offset="0.05" stop-color="rgb(13.883972%, 15.750122%, 17.553711%)"/>
   <stop offset="0.05" stop-color="rgb(13.905334%, 16.229248%, 18.22052%)"/>
   <stop offset="0.06" stop-color="rgb(13.926697%, 16.708374%, 18.887329%)"/>
   <stop offset="0.06" stop-color="rgb(13.948059%, 17.1875%, 19.555664%)"/>
   <stop offset="0.07" stop-color="rgb(13.969421%, 17.666626%, 20.222473%)"/>
   <stop offset="0.07" stop-color="rgb(13.990784%, 18.145752%, 20.890808%)"/>
   <stop offset="0.07" stop-color="rgb(14.012146%, 18.624878%, 21.557617%)"/>
   <stop offset="0.08" stop-color="rgb(14.033508%, 19.104004%, 22.224426%)"/>
   <stop offset="0.08" stop-color="rgb(14.054871%, 19.58313%, 22.891235%)"/>
   <stop offset="0.09" stop-color="rgb(14.076233%, 20.063782%, 23.55957%)"/>
   <stop offset="0.09" stop-color="rgb(14.097595%, 20.542908%, 24.226379%)"/>
   <stop offset="0.09" stop-color="rgb(14.118958%, 21.022034%, 24.893188%)"/>
   <stop offset="0.1" stop-color="rgb(14.14032%, 21.50116%, 25.559998%)"/>
   <stop offset="0.1" stop-color="rgb(14.161682%, 21.980286%, 26.228333%)"/>
   <stop offset="0.11" stop-color="rgb(14.183044%, 22.459412%, 26.895142%)"/>
   <stop offset="0.11" stop-color="rgb(14.204407%, 22.938538%, 27.563477%)"/>
   <stop offset="0.11" stop-color="rgb(14.225769%, 23.417664%, 28.230286%)"/>
   <stop offset="0.12" stop-color="rgb(14.247131%, 23.89679%, 28.897095%)"/>
   <stop offset="0.12" stop-color="rgb(14.268494%, 24.375916%, 29.563904%)"/>
   <stop offset="0.13" stop-color="rgb(14.289856%, 24.855042%, 30.232239%)"/>
   <stop offset="0.13" stop-color="rgb(14.309692%, 25.334167%, 30.899048%)"/>
   <stop offset="0.13" stop-color="rgb(14.331055%, 25.813293%, 31.567383%)"/>
   <stop offset="0.14" stop-color="rgb(14.352417%, 26.292419%, 32.234192%)"/>
   <stop offset="0.14" stop-color="rgb(14.373779%, 26.771545%, 32.901001%)"/>
   <stop offset="0.14" stop-color="rgb(14.395142%, 27.250671%, 33.56781%)"/>
   <stop offset="0.15" stop-color="rgb(14.416504%, 27.729797%, 34.236145%)"/>
   <stop offset="0.15" stop-color="rgb(14.437866%, 28.208923%, 34.902954%)"/>
   <stop offset="0.16" stop-color="rgb(14.459229%, 28.688049%, 35.571289%)"/>
   <stop offset="0.16" stop-color="rgb(14.480591%, 29.167175%, 36.238098%)"/>
   <stop offset="0.16" stop-color="rgb(14.501953%, 29.646301%, 36.904907%)"/>
   <stop offset="0.17" stop-color="rgb(14.523315%, 30.125427%, 37.571716%)"/>
   <stop offset="0.17" stop-color="rgb(14.544678%, 30.604553%, 38.240051%)"/>
   <stop offset="0.18" stop-color="rgb(14.56604%, 31.083679%, 38.90686%)"/>
   <stop offset="0.18" stop-color="rgb(14.587402%, 31.562805%, 39.575195%)"/>
   <stop offset="0.18" stop-color="rgb(14.608765%, 32.041931%, 40.242004%)"/>
   <stop offset="0.19" stop-color="rgb(14.630127%, 32.521057%, 40.908813%)"/>
   <stop offset="0.19" stop-color="rgb(14.651489%, 33.000183%, 41.575623%)"/>
   <stop offset="0.2" stop-color="rgb(14.672852%, 33.480835%, 42.243958%)"/>
   <stop offset="0.2" stop-color="rgb(14.694214%, 33.959961%, 42.910767%)"/>
   <stop offset="0.2" stop-color="rgb(14.715576%, 34.439087%, 43.579102%)"/>
   <stop offset="0.21" stop-color="rgb(14.736938%, 34.918213%, 44.245911%)"/>
   <stop offset="0.21" stop-color="rgb(14.758301%, 35.397339%, 44.91272%)"/>
   <stop offset="0.21" stop-color="rgb(14.778137%, 35.876465%, 45.579529%)"/>
   <stop offset="0.22" stop-color="rgb(14.7995%, 36.355591%, 46.247864%)"/>
   <stop offset="0.22" stop-color="rgb(14.820862%, 36.834717%, 46.914673%)"/>
   <stop offset="0.23" stop-color="rgb(14.842224%, 37.313843%, 47.583008%)"/>
   <stop offset="0.23" stop-color="rgb(14.863586%, 37.792969%, 48.249817%)"/>
   <stop offset="0.23" stop-color="rgb(14.884949%, 38.272095%, 48.916626%)"/>
   <stop offset="0.24" stop-color="rgb(14.906311%, 38.751221%, 49.583435%)"/>
   <stop offset="0.24" stop-color="rgb(14.927673%, 39.230347%, 50.25177%)"/>
   <stop offset="0.25" stop-color="rgb(14.949036%, 39.709473%, 50.918579%)"/>
   <stop offset="0.25" stop-color="rgb(14.970398%, 40.188599%, 51.586914%)"/>
   <stop offset="0.25" stop-color="rgb(14.99176%, 40.667725%, 52.253723%)"/>
   <stop offset="0.26" stop-color="rgb(15.013123%, 41.146851%, 52.920532%)"/>
   <stop offset="0.26" stop-color="rgb(15.034485%, 41.625977%, 53.587341%)"/>
   <stop offset="0.27" stop-color="rgb(15.055847%, 42.105103%, 54.255676%)"/>
   <stop offset="0.27" stop-color="rgb(15.077209%, 42.584229%, 54.922485%)"/>
   <stop offset="0.27" stop-color="rgb(15.098572%, 43.063354%, 55.59082%)"/>
   <stop offset="0.28" stop-color="rgb(15.119934%, 43.54248%, 56.257629%)"/>
   <stop offset="0.28" stop-color="rgb(15.141296%, 44.021606%, 56.924438%)"/>
   <stop offset="0.29" stop-color="rgb(15.162659%, 44.500732%, 57.591248%)"/>
   <stop offset="0.29" stop-color="rgb(15.184021%, 44.979858%, 58.259583%)"/>
   <stop offset="0.29" stop-color="rgb(15.205383%, 45.458984%, 58.926392%)"/>
   <stop offset="0.3" stop-color="rgb(15.226746%, 45.939636%, 59.594727%)"/>
   <stop offset="0.3" stop-color="rgb(15.248108%, 46.418762%, 60.261536%)"/>
   <stop offset="0.3" stop-color="rgb(15.26947%, 46.897888%, 60.928345%)"/>
   <stop offset="0.31" stop-color="rgb(15.289307%, 47.377014%, 61.595154%)"/>
   <stop offset="0.31" stop-color="rgb(15.310669%, 47.85614%, 62.263489%)"/>
   <stop offset="0.32" stop-color="rgb(15.332031%, 48.335266%, 62.930298%)"/>
   <stop offset="0.32" stop-color="rgb(15.353394%, 48.814392%, 63.597107%)"/>
   <stop offset="0.32" stop-color="rgb(15.374756%, 49.293518%, 64.263916%)"/>
   <stop offset="0.33" stop-color="rgb(15.396118%, 49.772644%, 64.932251%)"/>
   <stop offset="0.33" stop-color="rgb(15.41748%, 50.25177%, 65.59906%)"/>
   <stop offset="0.34" stop-color="rgb(15.438843%, 50.730896%, 66.267395%)"/>
   <stop offset="0.34" stop-color="rgb(15.460205%, 51.210022%, 66.934204%)"/>
   <stop offset="0.34" stop-color="rgb(15.481567%, 51.689148%, 67.601013%)"/>
   <stop offset="0.35" stop-color="rgb(15.50293%, 52.168274%, 68.267822%)"/>
   <stop offset="0.35" stop-color="rgb(15.524292%, 52.6474%, 68.936157%)"/>
   <stop offset="0.36" stop-color="rgb(15.545654%, 53.126526%, 69.602966%)"/>
   <stop offset="0.36" stop-color="rgb(15.567017%, 53.605652%, 70.271301%)"/>
   <stop offset="0.36" stop-color="rgb(15.588379%, 54.084778%, 70.93811%)"/>
   <stop offset="0.37" stop-color="rgb(15.609741%, 54.563904%, 71.604919%)"/>
   <stop offset="0.37" stop-color="rgb(15.631104%, 55.04303%, 72.271729%)"/>
   <stop offset="0.38" stop-color="rgb(15.652466%, 55.522156%, 72.940063%)"/>
   <stop offset="0.38" stop-color="rgb(15.673828%, 56.001282%, 73.606873%)"/>
   <stop offset="0.38" stop-color="rgb(15.69519%, 56.480408%, 74.275208%)"/>
   <stop offset="0.39" stop-color="rgb(15.716553%, 56.959534%, 74.942017%)"/>
   <stop offset="0.39" stop-color="rgb(15.737915%, 57.43866%, 75.608826%)"/>
   <stop offset="0.39" stop-color="rgb(15.759277%, 57.917786%, 76.275635%)"/>
   <stop offset="0.4" stop-color="rgb(15.78064%, 58.398438%, 76.94397%)"/>
   <stop offset="0.4" stop-color="rgb(15.800476%, 58.877563%, 77.610779%)"/>
   <stop offset="0.41" stop-color="rgb(15.821838%, 59.356689%, 78.279114%)"/>
   <stop offset="0.41" stop-color="rgb(15.843201%, 59.835815%, 78.945923%)"/>
   <stop offset="0.41" stop-color="rgb(15.864563%, 60.314941%, 79.612732%)"/>
   <stop offset="0.42" stop-color="rgb(15.885925%, 60.794067%, 80.279541%)"/>
   <stop offset="0.42" stop-color="rgb(15.907288%, 61.273193%, 80.947876%)"/>
   <stop offset="0.43" stop-color="rgb(15.92865%, 61.752319%, 81.614685%)"/>
   <stop offset="0.43" stop-color="rgb(15.950012%, 62.231445%, 82.28302%)"/>
   <stop offset="0.43" stop-color="rgb(15.971375%, 62.710571%, 82.949829%)"/>
   <stop offset="0.44" stop-color="rgb(15.992737%, 63.189697%, 83.616638%)"/>
   <stop offset="0.44" stop-color="rgb(16.014099%, 63.668823%, 84.283447%)"/>
   <stop offset="0.45" stop-color="rgb(16.035461%, 64.147949%, 84.951782%)"/>
   <stop offset="0.45" stop-color="rgb(16.056824%, 64.622498%, 85.612488%)"/>
   <stop offset="0.45" stop-color="rgb(16.078186%, 65.097046%, 86.274719%)"/>
   <stop offset="0.47" stop-color="rgb(16.078186%, 65.127563%, 86.31134%)"/>
   <stop offset="0.5" stop-color="rgb(16.078186%, 65.220642%, 86.422729%)"/>
   <stop offset="0.56" stop-color="rgb(16.078186%, 65.406799%, 86.645508%)"/>
   <stop offset="0.63" stop-color="rgb(16.078186%, 65.655518%, 86.943054%)"/>
   <stop offset="0.69" stop-color="rgb(16.078186%, 65.90271%, 87.240601%)"/>
   <stop offset="0.75" stop-color="rgb(16.078186%, 66.149902%, 87.538147%)"/>
   <stop offset="0.81" stop-color="rgb(16.078186%, 66.398621%, 87.835693%)"/>
   <stop offset="0.88" stop-color="rgb(16.078186%, 66.645813%, 88.131714%)"/>
   <stop offset="1" stop-color="rgb(16.078186%, 66.914368%, 88.453674%)"/>
  </linearGradient>
 </defs>
 <g class="layer">
  <title>Layer 1</title>
  <path d="m491.57,1544.82c0,0 16.89,19.41 43,-28c38,-69 59,-129 91,-216c7.79,-21.17 71.43,-135.82 132.43,-109.82c0,0 -93.43,-21.18 -97.43,-21.18c-4,0 -189,323 -189,323l20,52" fill="rgb(100%, 100%, 100%)" fill-rule="nonzero" id="svg_4"/>
  <path d="m1628.57,1544.82c0,0 -16.9,19.41 -43,-28c-38,-69 -59,-129 -91,-216c-7.79,-21.17 -56,-129 -125,-112c0,0 90,-16 94,-16c4,0 185,320 185,320l-20,52" fill="rgb(100%, 100%, 100%)" fill-rule="nonzero" id="svg_5"/>
  <path d="m682.57,581.82c0,0 319.5,-76.5 766.07,1.62l-103.07,202.38l-602,0l-61,-204" fill="rgb(100%, 100%, 100%)" fill-rule="nonzero" id="svg_6"/>
  <path d="m355.57,1496.82l30.16,35.17c0,0 29.84,12.83 51.84,16.83c22,4 64,6 64,6c0,0 10,-13 39,-85c29,-72 68,-182 113,-237c0,0 45.21,-55.39 79,-42c26.5,10.5 81.5,25.5 154,4l347.5,1c0,0 61,27.5 137,-2.5c32.49,-12.82 88.5,8.5 127.5,89.5c39,81 85,192 93,213c8,21 27,57 27,57l84,-15l51,-37l-45,-325l-80,-211l-283,-191.5l-585,0l-144,246.5l-174,372l-87,105" fill="rgb(0%, 0%, 0%)" fill-rule="nonzero" id="svg_7"/>
  <path d="m454.57,627.82c1.08,-1.96 194,-46 228,-46c0,0 42,-3 56,48c14,51 32,141 32,141c0,0 18,80 -15,126c-33,46 -133,153 -201,320c-68,167 -101,280 -101,280c0,0 -11,28 -31,38c-20,10 -56,-10 -74,-38c-18,-28 -56,-116 -53,-211c3,-95 43,-448 159,-658" fill="rgb(100%, 100%, 100%)" fill-rule="nonzero" id="svg_8"/>
  <path d="m482.57,621.82l2,-28c0,0 42,-32 101,-43c59,-11 103,1 103,1l5.43,29.18l-211.43,40.82" fill="rgb(0%, 0%, 0%)" fill-rule="nonzero" id="svg_9" transform="matrix(1 0 0 1 0 0)"/>
  <path d="m714.44,703.14l-5.51,1.53c-8.29,2.3 -16.88,-2.55 -19.18,-10.83l-9.94,-35.77c-2.3,-8.29 2.55,-16.87 10.83,-19.18l5.52,-1.53c8.29,-2.3 16.87,2.55 19.18,10.84l9.93,35.76c2.31,8.29 -2.54,16.88 -10.83,19.18" fill="rgb(100%, 100%, 100%)" fill-rule="nonzero" id="svg_10"/>
  <path d="m7144.41,13968.59l-55.11,-15.31c-82.89,-22.97 -168.75,25.51 -191.76,108.32l-99.41,357.7c-23.05,82.89 25.46,168.71 108.32,191.79l55.11,15.32c82.89,23 168.75,-25.51 191.8,-108.4l99.37,-357.62c23.05,-82.89 -25.46,-168.79 -108.32,-191.8zm0,0" fill="none" id="svg_11" stroke="rgb(70.117188%, 70.117188%, 70.117188%)" stroke-miterlimit="10" stroke-width="80" transform="matrix(0.1, 0, 0, -0.1, 0, 2100)"/>
  <path d="m623.57,777.82l4,-45c0,-13.13 -8,-20 -20,-22l-43,0c-13.25,0 -25,9 -24,21l3,50l28,30c0,0 7,11 21,0c14,-11 31,-34 31,-34" fill="rgb(100%, 100%, 100%)" fill-rule="nonzero" id="svg_12"/>
  <path d="m6235.66,13221.8l40,450c0,131.29 -80,200 -200,220l-430,0c-132.46,0 -250,-90 -240,-210l30,-500l280,-300c0,0 70,-110 210,0c140,110 310,340 310,340zm0,0" fill="none" id="svg_13" stroke="rgb(70.117188%, 70.117188%, 70.117188%)" stroke-miterlimit="10" stroke-width="120" transform="matrix(0.1, 0, 0, -0.1, 0, 2100)"/>
  <path d="m569.57,745.82l24,0l-13,-10l-11,10zm0,0" fill="rgb(0%, 0%, 0%)" fill-rule="nonzero" id="svg_14"/>
  <path d="m545.68,896.67l-4,45c0,13.14 8,20 20,22l43,0c13.25,0 25,-9 24,-21l-3,-50l-28,-30c0,0 -7,-11 -21,0c-14,11 -31,34 -31,34" fill="rgb(100%, 100%, 100%)" fill-rule="nonzero" id="svg_15"/>
  <path d="m5456.8,12033.28l-40,-450c0,-131.37 80,-200 200,-220l430,0c132.46,0 250,90 240,210l-30,500l-280,300c0,0 -70,110 -210,0c-140,-110 -310,-340 -310,-340zm0,0" fill="none" id="svg_16" stroke="rgb(70.117188%, 70.117188%, 70.117188%)" stroke-miterlimit="10" stroke-width="120" transform="matrix(0.1, 0, 0, -0.1, 0, 2100)"/>
  <path d="m599.68,928.67l-24,0l13,10l11,-10zm0,0" fill="rgb(0%, 0%, 0%)" fill-rule="nonzero" id="svg_17"/>
  <path d="m645.63,872.35l45,4c13.14,0 20,-8 22,-20l0,-43c0,-13.24 -9,-25 -21,-24l-50,3l-30,28c0,0 -11,7 0,21c11,14 34,31 34,31" fill="rgb(100%, 100%, 100%)" fill-rule="nonzero" id="svg_18"/>
  <path d="m6456.33,12276.48l450,-40c131.37,0 200,80 220,200l0,430c0,132.43 -90,250 -210,240l-500,-30l-300,-280c0,0 -110,-70 0,-210c110,-140 340,-310 340,-310zm0,0" fill="none" id="svg_19" stroke="rgb(70.117188%, 70.117188%, 70.117188%)" stroke-miterlimit="10" stroke-width="120" transform="matrix(0.1, 0, 0, -0.1, 0, 2100)"/>
  <path d="m677.63,818.35l0,24l10,-13l-10,-11zm0,0" fill="rgb(0%, 0%, 0%)" fill-rule="nonzero" id="svg_20"/>
  <path d="m526.79,794.47l-45,-4c-13.14,0 -20,8 -22,20l0,43c0,13.24 9,25 21,24l50,-3l30,-28c0,0 11,-7 0,-21c-11,-14 -34,-31 -34,-31" fill="rgb(100%, 100%, 100%)" fill-rule="nonzero" id="svg_21"/>
  <path d="m5267.85,13055.31l-450,40c-131.37,0 -200,-80 -220,-200l0,-430c0,-132.42 90,-250 210,-240l500,30l300,280c0,0 110,70 0,210c-110,140 -340,310 -340,310zm0,0" fill="none" id="svg_22" stroke="rgb(70.117188%, 70.117188%, 70.117188%)" stroke-miterlimit="10" stroke-width="120" transform="matrix(0.1, 0, 0, -0.1, 0, 2100)"/>
  <path d="m494.79,848.47l0,-24l-10,13l10,11zm0,0" fill="rgb(0%, 0%, 0%)" fill-rule="nonzero" id="svg_23"/>
  <path d="m1009.57,931.32c0,5.25 -4.26,9.5 -9.5,9.5c-5.25,0 -9.5,-4.25 -9.5,-9.5c0,-5.25 4.25,-9.5 9.5,-9.5c5.24,0 9.5,4.25 9.5,9.5" fill="rgb(19.993591%, 19.993591%, 19.993591%)" fill-rule="nonzero" id="svg_24"/>
  <path d="m1037.57,931.32c0,5.25 -4.26,9.5 -9.5,9.5c-5.25,0 -9.5,-4.25 -9.5,-9.5c0,-5.25 4.25,-9.5 9.5,-9.5c5.24,0 9.5,4.25 9.5,9.5" fill="rgb(19.993591%, 19.993591%, 19.993591%)" fill-rule="nonzero" id="svg_25"/>
  <path d="m1065.57,931.32c0,5.25 -4.26,9.5 -9.5,9.5c-5.25,0 -9.5,-4.25 -9.5,-9.5c0,-5.25 4.25,-9.5 9.5,-9.5c5.24,0 9.5,4.25 9.5,9.5" fill="rgb(19.993591%, 19.993591%, 19.993591%)" fill-rule="nonzero" id="svg_26"/>
  <path d="m1093.57,931.32c0,5.25 -4.26,9.5 -9.5,9.5c-5.25,0 -9.5,-4.25 -9.5,-9.5c0,-5.25 4.25,-9.5 9.5,-9.5c5.24,0 9.5,4.25 9.5,9.5" fill="rgb(19.993591%, 19.993591%, 19.993591%)" fill-rule="nonzero" id="svg_27"/>
  <path d="m1121.57,931.32c0,5.25 -4.26,9.5 -9.5,9.5c-5.25,0 -9.5,-4.25 -9.5,-9.5c0,-5.25 4.25,-9.5 9.5,-9.5c5.24,0 9.5,4.25 9.5,9.5" fill="rgb(19.993591%, 19.993591%, 19.993591%)" fill-rule="nonzero" id="svg_28"/>
  <path d="m1024.57,961.32c0,5.25 -4.26,9.5 -9.5,9.5c-5.25,0 -9.5,-4.25 -9.5,-9.5c0,-5.25 4.25,-9.5 9.5,-9.5c5.24,0 9.5,4.25 9.5,9.5" fill="rgb(19.993591%, 19.993591%, 19.993591%)" fill-rule="nonzero" id="svg_29"/>
  <path d="m1052.57,961.32c0,5.25 -4.26,9.5 -9.5,9.5c-5.25,0 -9.5,-4.25 -9.5,-9.5c0,-5.25 4.25,-9.5 9.5,-9.5c5.24,0 9.5,4.25 9.5,9.5" fill="rgb(19.993591%, 19.993591%, 19.993591%)" fill-rule="nonzero" id="svg_30"/>
  <path d="m1080.57,961.32c0,5.25 -4.26,9.5 -9.5,9.5c-5.25,0 -9.5,-4.25 -9.5,-9.5c0,-5.25 4.25,-9.5 9.5,-9.5c5.24,0 9.5,4.25 9.5,9.5" fill="rgb(19.993591%, 19.993591%, 19.993591%)" fill-rule="nonzero" id="svg_31"/>
  <path d="m1108.57,961.32c0,5.25 -4.26,9.5 -9.5,9.5c-5.25,0 -9.5,-4.25 -9.5,-9.5c0,-5.25 4.25,-9.5 9.5,-9.5c5.24,0 9.5,4.25 9.5,9.5" fill="rgb(19.993591%, 19.993591%, 19.993591%)" fill-rule="nonzero" id="svg_32"/>
  <path d="m10855.7,9631.8l-510,0c-55.31,0 -100,44.8 -100,100c0,55.19 44.69,100 100,100l510,0c55.2,0 100,-44.81 100,-100c0,-55.2 -44.8,-100 -100,-100zm0,0" fill="none" id="svg_33" stroke="rgb(39.988708%, 39.988708%, 39.988708%)" stroke-miterlimit="10" stroke-width="40" transform="matrix(0.1, 0, 0, -0.1, 0, 2100)"/>
  <path d="m952.02,1051.98c0,74.68 -60.55,135.23 -135.23,135.23c-74.68,0 -135.23,-60.55 -135.23,-135.23c0,-74.68 60.55,-135.23 135.23,-135.23c74.68,0 135.23,60.55 135.23,135.23" fill="rgb(19.993591%, 19.993591%, 19.993591%)" fill-rule="nonzero" id="svg_34"/>
  <path d="m906.75,1045.21c0,51.68 -41.9,93.58 -93.58,93.58c-51.69,0 -93.59,-41.9 -93.59,-93.58c0,-51.69 41.9,-93.59 93.59,-93.59c51.68,0 93.58,41.9 93.58,93.59" fill="rgb(30.200195%, 30.200195%, 30.200195%)" fill-rule="nonzero" id="svg_35"/>
  <path d="m871.29,1045.21c0,32.1 -26.02,58.12 -58.13,58.12c-32.09,0 -58.11,-26.02 -58.11,-58.12c0,-32.1 26.02,-58.12 58.11,-58.12c32.11,0 58.13,26.02 58.13,58.12" fill="rgb(19.993591%, 19.993591%, 19.993591%)" fill-rule="nonzero" id="svg_36"/>
  <path d="m1423.02,1051.98c0,74.68 -60.55,135.23 -135.23,135.23c-74.68,0 -135.23,-60.55 -135.23,-135.23c0,-74.68 60.55,-135.23 135.23,-135.23c74.68,0 135.23,60.55 135.23,135.23" fill="rgb(19.993591%, 19.993591%, 19.993591%)" fill-rule="nonzero" id="svg_37"/>
  <path d="m1377.75,1045.21c0,51.68 -41.9,93.58 -93.58,93.58c-51.69,0 -93.59,-41.9 -93.59,-93.58c0,-51.69 41.9,-93.59 93.59,-93.59c51.68,0 93.58,41.9 93.58,93.59" fill="rgb(30.200195%, 30.200195%, 30.200195%)" fill-rule="nonzero" id="svg_38"/>
  <path d="m1342.29,1045.21c0,32.1 -26.03,58.12 -58.12,58.12c-32.1,0 -58.12,-26.02 -58.12,-58.12c0,-32.1 26.02,-58.12 58.12,-58.12c32.09,0 58.12,26.02 58.12,58.12" fill="rgb(19.993591%, 19.993591%, 19.993591%)" fill-rule="nonzero" id="svg_39"/>
  <path d="m1640.07,621.82l-2,-28c0,0 -42,-32 -101,-43c-59,-11 -103,1 -103,1l-6.5,31.5l212.5,38.5" fill="rgb(0%, 0%, 0%)" fill-rule="nonzero" id="svg_40"/>
  <path d="m1654.3,627.82c-1.08,-1.96 -194,-46 -228,-46c0,0 -42,-3 -56,48c-14,51 -32,141 -32,141c0,0 -18,80 15,126c33,46 133,153 201,320c68,167 101,280 101,280c0,0 11,28 31,38c20,10 56,-10 74,-38c18,-28 56,-116 53,-211c-3,-95 -43,-448 -159,-658" fill="rgb(100%, 100%, 100%)" fill-rule="nonzero" id="svg_41"/>
  <path d="m1400.65,703.14l5.51,1.53c8.29,2.3 16.87,-2.55 19.17,-10.83l9.95,-35.77c2.3,-8.29 -2.55,-16.87 -10.84,-19.18l-5.51,-1.53c-8.29,-2.3 -16.87,2.55 -19.18,10.84l-9.94,35.76c-2.3,8.29 2.55,16.88 10.84,19.18" fill="rgb(100%, 100%, 100%)" fill-rule="nonzero" id="svg_42"/>
  <path d="m14006.48,13968.59l55.12,-15.31c82.89,-22.97 168.71,25.51 191.68,108.32l99.53,357.7c22.97,82.89 -25.51,168.71 -108.4,191.79l-55.11,15.32c-82.89,23 -168.71,-25.51 -191.8,-108.4l-99.41,-357.62c-22.97,-82.89 25.5,-168.79 108.39,-191.8zm0,0" fill="none" id="svg_43" stroke="rgb(70.117188%, 70.117188%, 70.117188%)" stroke-miterlimit="10" stroke-width="80" transform="matrix(0.1, 0, 0, -0.1, 0, 2100)"/>
  <path d="m1469.57,832.82c0,28.17 -22.84,51 -51,51c-28.17,0 -51,-22.83 -51,-51c0,-28.16 22.83,-51 51,-51c28.16,0 51,22.84 51,51" fill="rgb(100%, 100%, 100%)" fill-rule="nonzero" id="svg_44"/>
  <path d="m14695.7,12671.8c0,-281.68 -228.4,-510 -510,-510c-281.72,0 -510,228.32 -510,510c0,281.6 228.28,510 510,510c281.6,0 510,-228.4 510,-510zm0,0" fill="none" id="svg_45" stroke="rgb(70.117188%, 70.117188%, 70.117188%)" stroke-miterlimit="10" stroke-width="130" transform="matrix(0.1, 0, 0, -0.1, 0, 2100)"/>
  <path d="m1693.57,832.82c0,28.17 -22.84,51 -51,51c-28.17,0 -51,-22.83 -51,-51c0,-28.16 22.83,-51 51,-51c28.16,0 51,22.84 51,51" fill="rgb(100%, 100%, 100%)" fill-rule="nonzero" id="svg_46"/>
  <path d="m16935.7,12671.8c0,-281.68 -228.4,-510 -510,-510c-281.72,0 -510,228.32 -510,510c0,281.6 228.28,510 510,510c281.6,0 510,-228.4 510,-510zm0,0" fill="none" id="svg_47" stroke="rgb(70.117188%, 70.117188%, 70.117188%)" stroke-miterlimit="10" stroke-width="130" transform="matrix(0.1, 0, 0, -0.1, 0, 2100)"/>
  <path d="m1579.57,723.82c0,28.17 -22.84,51 -51,51c-28.17,0 -51,-22.83 -51,-51c0,-28.16 22.83,-51 51,-51c28.16,0 51,22.84 51,51" fill="rgb(100%, 100%, 100%)" fill-rule="nonzero" id="svg_48"/>
  <path d="m15795.7,13761.8c0,-281.68 -228.4,-510 -510,-510c-281.72,0 -510,228.32 -510,510c0,281.6 228.28,510 510,510c281.6,0 510,-228.4 510,-510zm0,0" fill="none" id="svg_49" stroke="rgb(70.117188%, 70.117188%, 70.117188%)" stroke-miterlimit="10" stroke-width="130" transform="matrix(0.1, 0, 0, -0.1, 0, 2100)"/>
  <path d="m1579.57,945.82c0,28.17 -22.84,51 -51,51c-28.17,0 -51,-22.83 -51,-51c0,-28.16 22.83,-51 51,-51c28.16,0 51,22.84 51,51" fill="rgb(100%, 100%, 100%)" fill-rule="nonzero" id="svg_50"/>
  <path d="m15795.7,11541.8c0,-281.68 -228.4,-510 -510,-510c-281.72,0 -510,228.32 -510,510c0,281.6 228.28,510 510,510c281.6,0 510,-228.4 510,-510zm0,0" fill="none" id="svg_51" stroke="rgb(70.117188%, 70.117188%, 70.117188%)" stroke-miterlimit="10" stroke-width="130" transform="matrix(0.1, 0, 0, -0.1, 0, 2100)"/>
  <g clip-path="url(#clip-0)" id="svg_52">
   <g clip-path="url(#clip-1)" id="svg_53">
    <g clip-path="url(#clip-2)" id="svg_54">
     <path d="m727.85,888.84l653.03,0l0,-346.81l-653.03,0l0,346.81zm0,0" fill="url(#linear-pattern-0)" fill-rule="nonzero" id="svg_55"/>
    </g>
   </g>
  </g>
  <path d="m1057.29,884.82l188.71,0c0,0 51.47,0 64.59,-42.46c13.12,-42.47 51.47,-228.51 51.47,-228.51c0,0 8.07,-24.27 -19.18,-32.35c-27.24,-8.09 -350.68,-36.4 -576.73,0c-28.05,4.51 -19.17,32.35 -19.17,32.35c0,0 38.35,186.04 51.47,228.51c13.12,42.46 64.58,42.46 64.58,42.46l194.26,0" fill="rgb(100%, 100%, 100%)" fill-rule="nonzero" id="svg_56"/>
  <path d="m1496.47,412.37c43.98,-25.97 96.6,-27.18 141.84,-0.62c45.24,26.56 27.38,74.68 20.9,117.91l-198.21,0c0,-44.86 -8.5,-91.33 35.48,-117.29z" fill="#000000" fill-opacity="null" id="svg_58" stroke="null" stroke-dasharray="null" stroke-linecap="null" stroke-linejoin="null" stroke-opacity="null" stroke-width="null" transform="rotate(10 1564.25 461.016)"/>
  <path d="m496.56,406.3c43.98,-25.97 96.6,-27.18 141.84,-0.62c45.24,26.56 27.38,74.68 20.9,117.91l-198.21,0c0,-44.86 -8.5,-91.33 35.48,-117.29z" fill="#000000" fill-opacity="null" id="svg_59" stroke="null" stroke-dasharray="null" stroke-linecap="null" stroke-linejoin="null" stroke-opacity="null" stroke-width="null" transform="rotate(-10 564.643 454.944)"/>
 </g>
</svg>