<?xml version="1.0" encoding="UTF-8"?>
<svg xmlns="http://www.w3.org/2000/svg" xmlns:xlink="http://www.w3.org/1999/xlink" width="2100" height="2100" viewBox="0 0 2100 2100">
<defs>
<clipPath id="clip-0">

</clipPath>
<clipPath id="clip-1">
<path clip-rule="nonzero" d="M 1057.648438 880.769531 L 1252.628906 880.769531 C 1252.628906 880.769531 1305.449219 882.789062 1319 840.449219 C 1332.550781 798.101562 1372 608 1372 608 C 1372 608 1380.878906 586.390625 1352.730469 578.328125 C 1324.578125 570.261719 990.398438 542.03125 756.835938 578.328125 C 727.847656 582.828125 737.023438 610.589844 737.023438 610.589844 C 737.023438 610.589844 771.445312 804.148438 785 846.5 C 798.554688 888.839844 856.933594 880.769531 856.933594 880.769531 Z M 1057.648438 880.769531 "/>
</clipPath>
<clipPath id="clip-2">
<path clip-rule="nonzero" d="M 1057.648438 880.769531 L 1252.628906 880.769531 C 1252.628906 880.769531 1305.449219 882.789062 1319 840.449219 C 1332.550781 798.101562 1372 608 1372 608 C 1372 608 1380.878906 586.390625 1352.730469 578.328125 C 1324.578125 570.261719 990.398438 542.03125 756.835938 578.328125 C 727.847656 582.828125 737.023438 610.589844 737.023438 610.589844 C 737.023438 610.589844 771.445312 804.148438 785 846.5 C 798.554688 888.839844 856.933594 880.769531 856.933594 880.769531 L 1057.648438 880.769531 "/>
</clipPath>
<linearGradient id="linear-pattern-0" gradientUnits="userSpaceOnUse" x1="-0.0231988" y1="0" x2="1.056745" y2="0" gradientTransform="matrix(0, -321.137, 321.137, 0, 1054.49, 881.39)">
<stop offset="0" stop-color="rgb(13.725281%, 12.156677%, 12.548828%)" stop-opacity="1"/>
<stop offset="0.015625" stop-color="rgb(13.725281%, 12.156677%, 12.548828%)" stop-opacity="1"/>
<stop offset="0.0234375" stop-color="rgb(13.729858%, 12.275696%, 12.715149%)" stop-opacity="1"/>
<stop offset="0.0273438" stop-color="rgb(13.757324%, 12.875366%, 13.549805%)" stop-opacity="1"/>
<stop offset="0.03125" stop-color="rgb(13.778687%, 13.354492%, 14.216614%)" stop-opacity="1"/>
<stop offset="0.0351562" stop-color="rgb(13.798523%, 13.833618%, 14.883423%)" stop-opacity="1"/>
<stop offset="0.0390625" stop-color="rgb(13.819885%, 14.312744%, 15.551758%)" stop-opacity="1"/>
<stop offset="0.0429688" stop-color="rgb(13.841248%, 14.79187%, 16.218567%)" stop-opacity="1"/>
<stop offset="0.046875" stop-color="rgb(13.86261%, 15.270996%, 16.886902%)" stop-opacity="1"/>
<stop offset="0.0507812" stop-color="rgb(13.883972%, 15.750122%, 17.553711%)" stop-opacity="1"/>
<stop offset="0.0546875" stop-color="rgb(13.905334%, 16.229248%, 18.22052%)" stop-opacity="1"/>
<stop offset="0.0585938" stop-color="rgb(13.926697%, 16.708374%, 18.887329%)" stop-opacity="1"/>
<stop offset="0.0625" stop-color="rgb(13.948059%, 17.1875%, 19.555664%)" stop-opacity="1"/>
<stop offset="0.0664062" stop-color="rgb(13.969421%, 17.666626%, 20.222473%)" stop-opacity="1"/>
<stop offset="0.0703125" stop-color="rgb(13.990784%, 18.145752%, 20.890808%)" stop-opacity="1"/>
<stop offset="0.0742188" stop-color="rgb(14.012146%, 18.624878%, 21.557617%)" stop-opacity="1"/>
<stop offset="0.078125" stop-color="rgb(14.033508%, 19.104004%, 22.224426%)" stop-opacity="1"/>
<stop offset="0.0820312" stop-color="rgb(14.054871%, 19.58313%, 22.891235%)" stop-opacity="1"/>
<stop offset="0.0859375" stop-color="rgb(14.076233%, 20.063782%, 23.55957%)" stop-opacity="1"/>
<stop offset="0.0898438" stop-color="rgb(14.097595%, 20.542908%, 24.226379%)" stop-opacity="1"/>
<stop offset="0.09375" stop-color="rgb(14.118958%, 21.022034%, 24.893188%)" stop-opacity="1"/>
<stop offset="0.0976562" stop-color="rgb(14.14032%, 21.50116%, 25.559998%)" stop-opacity="1"/>
<stop offset="0.101562" stop-color="rgb(14.161682%, 21.980286%, 26.228333%)" stop-opacity="1"/>
<stop offset="0.105469" stop-color="rgb(14.183044%, 22.459412%, 26.895142%)" stop-opacity="1"/>
<stop offset="0.109375" stop-color="rgb(14.204407%, 22.938538%, 27.563477%)" stop-opacity="1"/>
<stop offset="0.113281" stop-color="rgb(14.225769%, 23.417664%, 28.230286%)" stop-opacity="1"/>
<stop offset="0.117188" stop-color="rgb(14.247131%, 23.89679%, 28.897095%)" stop-opacity="1"/>
<stop offset="0.121094" stop-color="rgb(14.268494%, 24.375916%, 29.563904%)" stop-opacity="1"/>
<stop offset="0.125" stop-color="rgb(14.289856%, 24.855042%, 30.232239%)" stop-opacity="1"/>
<stop offset="0.128906" stop-color="rgb(14.309692%, 25.334167%, 30.899048%)" stop-opacity="1"/>
<stop offset="0.132812" stop-color="rgb(14.331055%, 25.813293%, 31.567383%)" stop-opacity="1"/>
<stop offset="0.136719" stop-color="rgb(14.352417%, 26.292419%, 32.234192%)" stop-opacity="1"/>
<stop offset="0.140625" stop-color="rgb(14.373779%, 26.771545%, 32.901001%)" stop-opacity="1"/>
<stop offset="0.144531" stop-color="rgb(14.395142%, 27.250671%, 33.56781%)" stop-opacity="1"/>
<stop offset="0.148438" stop-color="rgb(14.416504%, 27.729797%, 34.236145%)" stop-opacity="1"/>
<stop offset="0.152344" stop-color="rgb(14.437866%, 28.208923%, 34.902954%)" stop-opacity="1"/>
<stop offset="0.15625" stop-color="rgb(14.459229%, 28.688049%, 35.571289%)" stop-opacity="1"/>
<stop offset="0.160156" stop-color="rgb(14.480591%, 29.167175%, 36.238098%)" stop-opacity="1"/>
<stop offset="0.164062" stop-color="rgb(14.501953%, 29.646301%, 36.904907%)" stop-opacity="1"/>
<stop offset="0.167969" stop-color="rgb(14.523315%, 30.125427%, 37.571716%)" stop-opacity="1"/>
<stop offset="0.171875" stop-color="rgb(14.544678%, 30.604553%, 38.240051%)" stop-opacity="1"/>
<stop offset="0.175781" stop-color="rgb(14.56604%, 31.083679%, 38.90686%)" stop-opacity="1"/>
<stop offset="0.179688" stop-color="rgb(14.587402%, 31.562805%, 39.575195%)" stop-opacity="1"/>
<stop offset="0.183594" stop-color="rgb(14.608765%, 32.041931%, 40.242004%)" stop-opacity="1"/>
<stop offset="0.1875" stop-color="rgb(14.630127%, 32.521057%, 40.908813%)" stop-opacity="1"/>
<stop offset="0.191406" stop-color="rgb(14.651489%, 33.000183%, 41.575623%)" stop-opacity="1"/>
<stop offset="0.195312" stop-color="rgb(14.672852%, 33.480835%, 42.243958%)" stop-opacity="1"/>
<stop offset="0.199219" stop-color="rgb(14.694214%, 33.959961%, 42.910767%)" stop-opacity="1"/>
<stop offset="0.203125" stop-color="rgb(14.715576%, 34.439087%, 43.579102%)" stop-opacity="1"/>
<stop offset="0.207031" stop-color="rgb(14.736938%, 34.918213%, 44.245911%)" stop-opacity="1"/>
<stop offset="0.210938" stop-color="rgb(14.758301%, 35.397339%, 44.91272%)" stop-opacity="1"/>
<stop offset="0.214844" stop-color="rgb(14.778137%, 35.876465%, 45.579529%)" stop-opacity="1"/>
<stop offset="0.21875" stop-color="rgb(14.7995%, 36.355591%, 46.247864%)" stop-opacity="1"/>
<stop offset="0.222656" stop-color="rgb(14.820862%, 36.834717%, 46.914673%)" stop-opacity="1"/>
<stop offset="0.226562" stop-color="rgb(14.842224%, 37.313843%, 47.583008%)" stop-opacity="1"/>
<stop offset="0.230469" stop-color="rgb(14.863586%, 37.792969%, 48.249817%)" stop-opacity="1"/>
<stop offset="0.234375" stop-color="rgb(14.884949%, 38.272095%, 48.916626%)" stop-opacity="1"/>
<stop offset="0.238281" stop-color="rgb(14.906311%, 38.751221%, 49.583435%)" stop-opacity="1"/>
<stop offset="0.242188" stop-color="rgb(14.927673%, 39.230347%, 50.25177%)" stop-opacity="1"/>
<stop offset="0.246094" stop-color="rgb(14.949036%, 39.709473%, 50.918579%)" stop-opacity="1"/>
<stop offset="0.25" stop-color="rgb(14.970398%, 40.188599%, 51.586914%)" stop-opacity="1"/>
<stop offset="0.253906" stop-color="rgb(14.99176%, 40.667725%, 52.253723%)" stop-opacity="1"/>
<stop offset="0.257812" stop-color="rgb(15.013123%, 41.146851%, 52.920532%)" stop-opacity="1"/>
<stop offset="0.261719" stop-color="rgb(15.034485%, 41.625977%, 53.587341%)" stop-opacity="1"/>
<stop offset="0.265625" stop-color="rgb(15.055847%, 42.105103%, 54.255676%)" stop-opacity="1"/>
<stop offset="0.269531" stop-color="rgb(15.077209%, 42.584229%, 54.922485%)" stop-opacity="1"/>
<stop offset="0.273438" stop-color="rgb(15.098572%, 43.063354%, 55.59082%)" stop-opacity="1"/>
<stop offset="0.277344" stop-color="rgb(15.119934%, 43.54248%, 56.257629%)" stop-opacity="1"/>
<stop offset="0.28125" stop-color="rgb(15.141296%, 44.021606%, 56.924438%)" stop-opacity="1"/>
<stop offset="0.285156" stop-color="rgb(15.162659%, 44.500732%, 57.591248%)" stop-opacity="1"/>
<stop offset="0.289062" stop-color="rgb(15.184021%, 44.979858%, 58.259583%)" stop-opacity="1"/>
<stop offset="0.292969" stop-color="rgb(15.205383%, 45.458984%, 58.926392%)" stop-opacity="1"/>
<stop offset="0.296875" stop-color="rgb(15.226746%, 45.939636%, 59.594727%)" stop-opacity="1"/>
<stop offset="0.300781" stop-color="rgb(15.248108%, 46.418762%, 60.261536%)" stop-opacity="1"/>
<stop offset="0.304688" stop-color="rgb(15.26947%, 46.897888%, 60.928345%)" stop-opacity="1"/>
<stop offset="0.308594" stop-color="rgb(15.289307%, 47.377014%, 61.595154%)" stop-opacity="1"/>
<stop offset="0.3125" stop-color="rgb(15.310669%, 47.85614%, 62.263489%)" stop-opacity="1"/>
<stop offset="0.316406" stop-color="rgb(15.332031%, 48.335266%, 62.930298%)" stop-opacity="1"/>
<stop offset="0.320312" stop-color="rgb(15.353394%, 48.814392%, 63.597107%)" stop-opacity="1"/>
<stop offset="0.324219" stop-color="rgb(15.374756%, 49.293518%, 64.263916%)" stop-opacity="1"/>
<stop offset="0.328125" stop-color="rgb(15.396118%, 49.772644%, 64.932251%)" stop-opacity="1"/>
<stop offset="0.332031" stop-color="rgb(15.41748%, 50.25177%, 65.59906%)" stop-opacity="1"/>
<stop offset="0.335938" stop-color="rgb(15.438843%, 50.730896%, 66.267395%)" stop-opacity="1"/>
<stop offset="0.339844" stop-color="rgb(15.460205%, 51.210022%, 66.934204%)" stop-opacity="1"/>
<stop offset="0.34375" stop-color="rgb(15.481567%, 51.689148%, 67.601013%)" stop-opacity="1"/>
<stop offset="0.347656" stop-color="rgb(15.50293%, 52.168274%, 68.267822%)" stop-opacity="1"/>
<stop offset="0.351562" stop-color="rgb(15.524292%, 52.6474%, 68.936157%)" stop-opacity="1"/>
<stop offset="0.355469" stop-color="rgb(15.545654%, 53.126526%, 69.602966%)" stop-opacity="1"/>
<stop offset="0.359375" stop-color="rgb(15.567017%, 53.605652%, 70.271301%)" stop-opacity="1"/>
<stop offset="0.363281" stop-color="rgb(15.588379%, 54.084778%, 70.93811%)" stop-opacity="1"/>
<stop offset="0.367188" stop-color="rgb(15.609741%, 54.563904%, 71.604919%)" stop-opacity="1"/>
<stop offset="0.371094" stop-color="rgb(15.631104%, 55.04303%, 72.271729%)" stop-opacity="1"/>
<stop offset="0.375" stop-color="rgb(15.652466%, 55.522156%, 72.940063%)" stop-opacity="1"/>
<stop offset="0.378906" stop-color="rgb(15.673828%, 56.001282%, 73.606873%)" stop-opacity="1"/>
<stop offset="0.382812" stop-color="rgb(15.69519%, 56.480408%, 74.275208%)" stop-opacity="1"/>
<stop offset="0.386719" stop-color="rgb(15.716553%, 56.959534%, 74.942017%)" stop-opacity="1"/>
<stop offset="0.390625" stop-color="rgb(15.737915%, 57.43866%, 75.608826%)" stop-opacity="1"/>
<stop offset="0.394531" stop-color="rgb(15.759277%, 57.917786%, 76.275635%)" stop-opacity="1"/>
<stop offset="0.398438" stop-color="rgb(15.78064%, 58.398438%, 76.94397%)" stop-opacity="1"/>
<stop offset="0.402344" stop-color="rgb(15.800476%, 58.877563%, 77.610779%)" stop-opacity="1"/>
<stop offset="0.40625" stop-color="rgb(15.821838%, 59.356689%, 78.279114%)" stop-opacity="1"/>
<stop offset="0.410156" stop-color="rgb(15.843201%, 59.835815%, 78.945923%)" stop-opacity="1"/>
<stop offset="0.414062" stop-color="rgb(15.864563%, 60.314941%, 79.612732%)" stop-opacity="1"/>
<stop offset="0.417969" stop-color="rgb(15.885925%, 60.794067%, 80.279541%)" stop-opacity="1"/>
<stop offset="0.421875" stop-color="rgb(15.907288%, 61.273193%, 80.947876%)" stop-opacity="1"/>
<stop offset="0.425781" stop-color="rgb(15.92865%, 61.752319%, 81.614685%)" stop-opacity="1"/>
<stop offset="0.429688" stop-color="rgb(15.950012%, 62.231445%, 82.28302%)" stop-opacity="1"/>
<stop offset="0.433594" stop-color="rgb(15.971375%, 62.710571%, 82.949829%)" stop-opacity="1"/>
<stop offset="0.4375" stop-color="rgb(15.992737%, 63.189697%, 83.616638%)" stop-opacity="1"/>
<stop offset="0.441406" stop-color="rgb(16.014099%, 63.668823%, 84.283447%)" stop-opacity="1"/>
<stop offset="0.445312" stop-color="rgb(16.035461%, 64.147949%, 84.951782%)" stop-opacity="1"/>
<stop offset="0.449219" stop-color="rgb(16.056824%, 64.622498%, 85.612488%)" stop-opacity="1"/>
<stop offset="0.453125" stop-color="rgb(16.078186%, 65.097046%, 86.274719%)" stop-opacity="1"/>
<stop offset="0.46875" stop-color="rgb(16.078186%, 65.127563%, 86.31134%)" stop-opacity="1"/>
<stop offset="0.5" stop-color="rgb(16.078186%, 65.220642%, 86.422729%)" stop-opacity="1"/>
<stop offset="0.5625" stop-color="rgb(16.078186%, 65.406799%, 86.645508%)" stop-opacity="1"/>
<stop offset="0.625" stop-color="rgb(16.078186%, 65.655518%, 86.943054%)" stop-opacity="1"/>
<stop offset="0.6875" stop-color="rgb(16.078186%, 65.90271%, 87.240601%)" stop-opacity="1"/>
<stop offset="0.75" stop-color="rgb(16.078186%, 66.149902%, 87.538147%)" stop-opacity="1"/>
<stop offset="0.8125" stop-color="rgb(16.078186%, 66.398621%, 87.835693%)" stop-opacity="1"/>
<stop offset="0.875" stop-color="rgb(16.078186%, 66.645813%, 88.131714%)" stop-opacity="1"/>
<stop offset="1" stop-color="rgb(16.078186%, 66.914368%, 88.453674%)" stop-opacity="1"/>
</linearGradient>
</defs>

<path fill-rule="nonzero" fill="rgb(14.501953%, 44.309998%, 54.881287%)" fill-opacity="1" d="M 349 1497 L 1121 2269 L 2251 2269 L 2340 1314 L 1648 622 L 563 683 L 349 1497 "/>
<path fill-rule="nonzero" fill="rgb(100%, 100%, 100%)" fill-opacity="1" d="M 491.566406 1544.820312 C 491.566406 1544.820312 508.460938 1564.230469 534.566406 1516.820312 C 572.566406 1447.820312 593.566406 1387.820312 625.566406 1300.820312 C 633.355469 1279.648438 697 1165 758 1191 C 758 1191 664.566406 1169.820312 660.566406 1169.820312 C 656.566406 1169.820312 471.566406 1492.820312 471.566406 1492.820312 L 491.566406 1544.820312 "/>
<path fill-rule="nonzero" fill="rgb(100%, 100%, 100%)" fill-opacity="1" d="M 1628.570312 1544.820312 C 1628.570312 1544.820312 1611.671875 1564.230469 1585.570312 1516.820312 C 1547.570312 1447.820312 1526.570312 1387.820312 1494.570312 1300.820312 C 1486.78125 1279.648438 1438.570312 1171.820312 1369.570312 1188.820312 C 1369.570312 1188.820312 1459.570312 1172.820312 1463.570312 1172.820312 C 1467.570312 1172.820312 1648.570312 1492.820312 1648.570312 1492.820312 L 1628.570312 1544.820312 "/>
<path fill-rule="nonzero" fill="rgb(100%, 100%, 100%)" fill-opacity="1" d="M 682.566406 581.820312 C 682.566406 581.820312 1002.070312 505.320312 1448.640625 583.441406 L 1345.570312 785.820312 L 743.566406 785.820312 L 682.566406 581.820312 "/>
<path fill-rule="nonzero" fill="rgb(0%, 0%, 0%)" fill-opacity="1" d="M 355.566406 1496.820312 L 385.734375 1531.988281 C 385.734375 1531.988281 415.566406 1544.820312 437.566406 1548.820312 C 459.566406 1552.820312 501.566406 1554.820312 501.566406 1554.820312 C 501.566406 1554.820312 511.566406 1541.820312 540.566406 1469.820312 C 569.566406 1397.820312 608.566406 1287.820312 653.566406 1232.820312 C 653.566406 1232.820312 698.777344 1177.429688 732.566406 1190.820312 C 759.066406 1201.320312 814.066406 1216.320312 886.566406 1194.820312 L 1234.070312 1195.820312 C 1234.070312 1195.820312 1295.070312 1223.320312 1371.070312 1193.320312 C 1403.558594 1180.5 1459.570312 1201.820312 1498.570312 1282.820312 C 1537.570312 1363.820312 1583.570312 1474.820312 1591.570312 1495.820312 C 1599.570312 1516.820312 1618.570312 1552.820312 1618.570312 1552.820312 L 1702.570312 1537.820312 L 1753.570312 1500.820312 L 1708.570312 1175.820312 L 1628.570312 964.820312 L 1345.570312 773.320312 L 760.566406 773.320312 L 616.566406 1019.820312 L 442.566406 1391.820312 L 355.566406 1496.820312 "/>
<path fill-rule="nonzero" fill="rgb(100%, 100%, 100%)" fill-opacity="1" d="M 454.566406 627.820312 C 455.648438 625.859375 648.566406 581.820312 682.566406 581.820312 C 682.566406 581.820312 724.566406 578.820312 738.566406 629.820312 C 752.566406 680.820312 770.566406 770.820312 770.566406 770.820312 C 770.566406 770.820312 788.566406 850.820312 755.566406 896.820312 C 722.566406 942.820312 622.566406 1049.820312 554.566406 1216.820312 C 486.566406 1383.820312 453.566406 1496.820312 453.566406 1496.820312 C 453.566406 1496.820312 442.566406 1524.820312 422.566406 1534.820312 C 402.566406 1544.820312 366.566406 1524.820312 348.566406 1496.820312 C 330.566406 1468.820312 292.566406 1380.820312 295.566406 1285.820312 C 298.566406 1190.820312 338.566406 837.820312 454.566406 627.820312 "/>
<path fill-rule="nonzero" fill="rgb(0%, 0%, 0%)" fill-opacity="1" d="M 482.566406 621.820312 L 484.566406 593.820312 C 484.566406 593.820312 526.566406 561.820312 585.566406 550.820312 C 644.566406 539.820312 688.566406 551.820312 688.566406 551.820312 L 694 581 L 482.566406 621.820312 "/>
<path fill-rule="nonzero" fill="rgb(100%, 100%, 100%)" fill-opacity="1" d="M 714.441406 703.140625 L 708.929688 704.671875 C 700.640625 706.96875 692.054688 702.121094 689.753906 693.839844 L 679.8125 658.070312 C 677.507812 649.78125 682.359375 641.199219 690.644531 638.890625 L 696.15625 637.359375 C 704.445312 635.058594 713.03125 639.910156 715.335938 648.199219 L 725.273438 683.960938 C 727.578125 692.25 722.726562 700.839844 714.441406 703.140625 "/>
<path fill="none" stroke-width="80" stroke-linecap="butt" stroke-linejoin="miter" stroke="rgb(70.117188%, 70.117188%, 70.117188%)" stroke-opacity="1" stroke-miterlimit="10" d="M 7144.414062 13968.59375 L 7089.296875 13953.28125 C 7006.40625 13930.3125 6920.546875 13978.789062 6897.539062 14061.601562 L 6798.125 14419.296875 C 6775.078125 14502.1875 6823.59375 14588.007812 6906.445312 14611.09375 L 6961.5625 14626.40625 C 7044.453125 14649.414062 7130.3125 14600.898438 7153.359375 14518.007812 L 7252.734375 14160.390625 C 7275.78125 14077.5 7227.265625 13991.601562 7144.414062 13968.59375 Z M 7144.414062 13968.59375 " transform="matrix(0.1, 0, 0, -0.1, 0, 2100)"/>
<path fill-rule="nonzero" fill="rgb(100%, 100%, 100%)" fill-opacity="1" d="M 623.566406 777.820312 L 627.566406 732.820312 C 627.566406 719.691406 619.566406 712.820312 607.566406 710.820312 L 564.566406 710.820312 C 551.320312 710.820312 539.566406 719.820312 540.566406 731.820312 L 543.566406 781.820312 L 571.566406 811.820312 C 571.566406 811.820312 578.566406 822.820312 592.566406 811.820312 C 606.566406 800.820312 623.566406 777.820312 623.566406 777.820312 "/>
<path fill="none" stroke-width="120" stroke-linecap="butt" stroke-linejoin="miter" stroke="rgb(70.117188%, 70.117188%, 70.117188%)" stroke-opacity="1" stroke-miterlimit="10" d="M 6235.664062 13221.796875 L 6275.664062 13671.796875 C 6275.664062 13803.085938 6195.664062 13871.796875 6075.664062 13891.796875 L 5645.664062 13891.796875 C 5513.203125 13891.796875 5395.664062 13801.796875 5405.664062 13681.796875 L 5435.664062 13181.796875 L 5715.664062 12881.796875 C 5715.664062 12881.796875 5785.664062 12771.796875 5925.664062 12881.796875 C 6065.664062 12991.796875 6235.664062 13221.796875 6235.664062 13221.796875 Z M 6235.664062 13221.796875 " transform="matrix(0.1, 0, 0, -0.1, 0, 2100)"/>
<path fill-rule="nonzero" fill="rgb(0%, 0%, 0%)" fill-opacity="1" d="M 569.566406 745.820312 L 593.566406 745.820312 L 580.566406 735.820312 Z M 569.566406 745.820312 "/>
<path fill-rule="nonzero" fill="rgb(100%, 100%, 100%)" fill-opacity="1" d="M 545.679688 896.671875 L 541.679688 941.671875 C 541.679688 954.808594 549.679688 961.671875 561.679688 963.671875 L 604.679688 963.671875 C 617.925781 963.671875 629.679688 954.671875 628.679688 942.671875 L 625.679688 892.671875 L 597.679688 862.671875 C 597.679688 862.671875 590.679688 851.671875 576.679688 862.671875 C 562.679688 873.671875 545.679688 896.671875 545.679688 896.671875 "/>
<path fill="none" stroke-width="120" stroke-linecap="butt" stroke-linejoin="miter" stroke="rgb(70.117188%, 70.117188%, 70.117188%)" stroke-opacity="1" stroke-miterlimit="10" d="M 5456.796875 12033.28125 L 5416.796875 11583.28125 C 5416.796875 11451.914062 5496.796875 11383.28125 5616.796875 11363.28125 L 6046.796875 11363.28125 C 6179.257812 11363.28125 6296.796875 11453.28125 6286.796875 11573.28125 L 6256.796875 12073.28125 L 5976.796875 12373.28125 C 5976.796875 12373.28125 5906.796875 12483.28125 5766.796875 12373.28125 C 5626.796875 12263.28125 5456.796875 12033.28125 5456.796875 12033.28125 Z M 5456.796875 12033.28125 " transform="matrix(0.1, 0, 0, -0.1, 0, 2100)"/>
<path fill-rule="nonzero" fill="rgb(0%, 0%, 0%)" fill-opacity="1" d="M 599.679688 928.671875 L 575.679688 928.671875 L 588.679688 938.671875 Z M 599.679688 928.671875 "/>
<path fill-rule="nonzero" fill="rgb(100%, 100%, 100%)" fill-opacity="1" d="M 645.632812 872.351562 L 690.632812 876.351562 C 703.769531 876.351562 710.632812 868.351562 712.632812 856.351562 L 712.632812 813.351562 C 712.632812 800.109375 703.632812 788.351562 691.632812 789.351562 L 641.632812 792.351562 L 611.632812 820.351562 C 611.632812 820.351562 600.632812 827.351562 611.632812 841.351562 C 622.632812 855.351562 645.632812 872.351562 645.632812 872.351562 "/>
<path fill="none" stroke-width="120" stroke-linecap="butt" stroke-linejoin="miter" stroke="rgb(70.117188%, 70.117188%, 70.117188%)" stroke-opacity="1" stroke-miterlimit="10" d="M 6456.328125 12276.484375 L 6906.328125 12236.484375 C 7037.695312 12236.484375 7106.328125 12316.484375 7126.328125 12436.484375 L 7126.328125 12866.484375 C 7126.328125 12998.90625 7036.328125 13116.484375 6916.328125 13106.484375 L 6416.328125 13076.484375 L 6116.328125 12796.484375 C 6116.328125 12796.484375 6006.328125 12726.484375 6116.328125 12586.484375 C 6226.328125 12446.484375 6456.328125 12276.484375 6456.328125 12276.484375 Z M 6456.328125 12276.484375 " transform="matrix(0.1, 0, 0, -0.1, 0, 2100)"/>
<path fill-rule="nonzero" fill="rgb(0%, 0%, 0%)" fill-opacity="1" d="M 677.632812 818.351562 L 677.632812 842.351562 L 687.632812 829.351562 Z M 677.632812 818.351562 "/>
<path fill-rule="nonzero" fill="rgb(100%, 100%, 100%)" fill-opacity="1" d="M 526.785156 794.46875 L 481.785156 790.46875 C 468.648438 790.46875 461.785156 798.46875 459.785156 810.46875 L 459.785156 853.46875 C 459.785156 866.710938 468.785156 878.46875 480.785156 877.46875 L 530.785156 874.46875 L 560.785156 846.46875 C 560.785156 846.46875 571.785156 839.46875 560.785156 825.46875 C 549.785156 811.46875 526.785156 794.46875 526.785156 794.46875 "/>
<path fill="none" stroke-width="120" stroke-linecap="butt" stroke-linejoin="miter" stroke="rgb(70.117188%, 70.117188%, 70.117188%)" stroke-opacity="1" stroke-miterlimit="10" d="M 5267.851562 13055.3125 L 4817.851562 13095.3125 C 4686.484375 13095.3125 4617.851562 13015.3125 4597.851562 12895.3125 L 4597.851562 12465.3125 C 4597.851562 12332.890625 4687.851562 12215.3125 4807.851562 12225.3125 L 5307.851562 12255.3125 L 5607.851562 12535.3125 C 5607.851562 12535.3125 5717.851562 12605.3125 5607.851562 12745.3125 C 5497.851562 12885.3125 5267.851562 13055.3125 5267.851562 13055.3125 Z M 5267.851562 13055.3125 " transform="matrix(0.1, 0, 0, -0.1, 0, 2100)"/>
<path fill-rule="nonzero" fill="rgb(0%, 0%, 0%)" fill-opacity="1" d="M 494.785156 848.46875 L 494.785156 824.46875 L 484.785156 837.46875 Z M 494.785156 848.46875 "/>
<path fill-rule="nonzero" fill="rgb(19.993591%, 19.993591%, 19.993591%)" fill-opacity="1" d="M 1009.570312 931.320312 C 1009.570312 936.570312 1005.308594 940.820312 1000.070312 940.820312 C 994.820312 940.820312 990.566406 936.570312 990.566406 931.320312 C 990.566406 926.070312 994.820312 921.820312 1000.070312 921.820312 C 1005.308594 921.820312 1009.570312 926.070312 1009.570312 931.320312 "/>
<path fill-rule="nonzero" fill="rgb(19.993591%, 19.993591%, 19.993591%)" fill-opacity="1" d="M 1037.570312 931.320312 C 1037.570312 936.570312 1033.308594 940.820312 1028.070312 940.820312 C 1022.820312 940.820312 1018.570312 936.570312 1018.570312 931.320312 C 1018.570312 926.070312 1022.820312 921.820312 1028.070312 921.820312 C 1033.308594 921.820312 1037.570312 926.070312 1037.570312 931.320312 "/>
<path fill-rule="nonzero" fill="rgb(19.993591%, 19.993591%, 19.993591%)" fill-opacity="1" d="M 1065.570312 931.320312 C 1065.570312 936.570312 1061.308594 940.820312 1056.070312 940.820312 C 1050.820312 940.820312 1046.570312 936.570312 1046.570312 931.320312 C 1046.570312 926.070312 1050.820312 921.820312 1056.070312 921.820312 C 1061.308594 921.820312 1065.570312 926.070312 1065.570312 931.320312 "/>
<path fill-rule="nonzero" fill="rgb(19.993591%, 19.993591%, 19.993591%)" fill-opacity="1" d="M 1093.570312 931.320312 C 1093.570312 936.570312 1089.308594 940.820312 1084.070312 940.820312 C 1078.820312 940.820312 1074.570312 936.570312 1074.570312 931.320312 C 1074.570312 926.070312 1078.820312 921.820312 1084.070312 921.820312 C 1089.308594 921.820312 1093.570312 926.070312 1093.570312 931.320312 "/>
<path fill-rule="nonzero" fill="rgb(19.993591%, 19.993591%, 19.993591%)" fill-opacity="1" d="M 1121.570312 931.320312 C 1121.570312 936.570312 1117.308594 940.820312 1112.070312 940.820312 C 1106.820312 940.820312 1102.570312 936.570312 1102.570312 931.320312 C 1102.570312 926.070312 1106.820312 921.820312 1112.070312 921.820312 C 1117.308594 921.820312 1121.570312 926.070312 1121.570312 931.320312 "/>
<path fill-rule="nonzero" fill="rgb(19.993591%, 19.993591%, 19.993591%)" fill-opacity="1" d="M 1024.570312 961.320312 C 1024.570312 966.570312 1020.308594 970.820312 1015.070312 970.820312 C 1009.820312 970.820312 1005.570312 966.570312 1005.570312 961.320312 C 1005.570312 956.070312 1009.820312 951.820312 1015.070312 951.820312 C 1020.308594 951.820312 1024.570312 956.070312 1024.570312 961.320312 "/>
<path fill-rule="nonzero" fill="rgb(19.993591%, 19.993591%, 19.993591%)" fill-opacity="1" d="M 1052.570312 961.320312 C 1052.570312 966.570312 1048.308594 970.820312 1043.070312 970.820312 C 1037.820312 970.820312 1033.570312 966.570312 1033.570312 961.320312 C 1033.570312 956.070312 1037.820312 951.820312 1043.070312 951.820312 C 1048.308594 951.820312 1052.570312 956.070312 1052.570312 961.320312 "/>
<path fill-rule="nonzero" fill="rgb(19.993591%, 19.993591%, 19.993591%)" fill-opacity="1" d="M 1080.570312 961.320312 C 1080.570312 966.570312 1076.308594 970.820312 1071.070312 970.820312 C 1065.820312 970.820312 1061.570312 966.570312 1061.570312 961.320312 C 1061.570312 956.070312 1065.820312 951.820312 1071.070312 951.820312 C 1076.308594 951.820312 1080.570312 956.070312 1080.570312 961.320312 "/>
<path fill-rule="nonzero" fill="rgb(19.993591%, 19.993591%, 19.993591%)" fill-opacity="1" d="M 1108.570312 961.320312 C 1108.570312 966.570312 1104.308594 970.820312 1099.070312 970.820312 C 1093.820312 970.820312 1089.570312 966.570312 1089.570312 961.320312 C 1089.570312 956.070312 1093.820312 951.820312 1099.070312 951.820312 C 1104.308594 951.820312 1108.570312 956.070312 1108.570312 961.320312 "/>
<path fill="none" stroke-width="40" stroke-linecap="butt" stroke-linejoin="miter" stroke="rgb(39.988708%, 39.988708%, 39.988708%)" stroke-opacity="1" stroke-miterlimit="10" d="M 10855.703125 9631.796875 L 10345.703125 9631.796875 C 10290.390625 9631.796875 10245.703125 9676.601562 10245.703125 9731.796875 C 10245.703125 9786.992188 10290.390625 9831.796875 10345.703125 9831.796875 L 10855.703125 9831.796875 C 10910.898438 9831.796875 10955.703125 9786.992188 10955.703125 9731.796875 C 10955.703125 9676.601562 10910.898438 9631.796875 10855.703125 9631.796875 Z M 10855.703125 9631.796875 " transform="matrix(0.1, 0, 0, -0.1, 0, 2100)"/>
<path fill-rule="nonzero" fill="rgb(19.993591%, 19.993591%, 19.993591%)" fill-opacity="1" d="M 952.015625 1051.980469 C 952.015625 1126.660156 891.472656 1187.210938 816.789062 1187.210938 C 742.105469 1187.210938 681.5625 1126.660156 681.5625 1051.980469 C 681.5625 977.300781 742.105469 916.75 816.789062 916.75 C 891.472656 916.75 952.015625 977.300781 952.015625 1051.980469 "/>
<path fill-rule="nonzero" fill="rgb(30.200195%, 30.200195%, 30.200195%)" fill-opacity="1" d="M 906.75 1045.210938 C 906.75 1096.890625 864.851562 1138.789062 813.167969 1138.789062 C 761.480469 1138.789062 719.582031 1096.890625 719.582031 1045.210938 C 719.582031 993.519531 761.480469 951.621094 813.167969 951.621094 C 864.851562 951.621094 906.75 993.519531 906.75 1045.210938 "/>
<path fill-rule="nonzero" fill="rgb(19.993591%, 19.993591%, 19.993591%)" fill-opacity="1" d="M 871.285156 1045.210938 C 871.285156 1077.308594 845.265625 1103.328125 813.164062 1103.328125 C 781.066406 1103.328125 755.046875 1077.308594 755.046875 1045.210938 C 755.046875 1013.109375 781.066406 987.089844 813.164062 987.089844 C 845.265625 987.089844 871.285156 1013.109375 871.285156 1045.210938 "/>
<path fill-rule="nonzero" fill="rgb(19.993591%, 19.993591%, 19.993591%)" fill-opacity="1" d="M 1423.019531 1051.980469 C 1423.019531 1126.660156 1362.46875 1187.210938 1287.789062 1187.210938 C 1213.109375 1187.210938 1152.558594 1126.660156 1152.558594 1051.980469 C 1152.558594 977.300781 1213.109375 916.75 1287.789062 916.75 C 1362.46875 916.75 1423.019531 977.300781 1423.019531 1051.980469 "/>
<path fill-rule="nonzero" fill="rgb(30.200195%, 30.200195%, 30.200195%)" fill-opacity="1" d="M 1377.75 1045.210938 C 1377.75 1096.890625 1335.851562 1138.789062 1284.171875 1138.789062 C 1232.480469 1138.789062 1190.578125 1096.890625 1190.578125 1045.210938 C 1190.578125 993.519531 1232.480469 951.621094 1284.171875 951.621094 C 1335.851562 951.621094 1377.75 993.519531 1377.75 1045.210938 "/>
<path fill-rule="nonzero" fill="rgb(19.993591%, 19.993591%, 19.993591%)" fill-opacity="1" d="M 1342.289062 1045.210938 C 1342.289062 1077.308594 1316.261719 1103.328125 1284.171875 1103.328125 C 1252.070312 1103.328125 1226.050781 1077.308594 1226.050781 1045.210938 C 1226.050781 1013.109375 1252.070312 987.089844 1284.171875 987.089844 C 1316.261719 987.089844 1342.289062 1013.109375 1342.289062 1045.210938 "/>
<path fill-rule="nonzero" fill="rgb(0%, 0%, 0%)" fill-opacity="1" d="M 1640.070312 621.820312 L 1638.070312 593.820312 C 1638.070312 593.820312 1596.070312 561.820312 1537.070312 550.820312 C 1478.070312 539.820312 1434.070312 551.820312 1434.070312 551.820312 L 1427.570312 583.320312 L 1640.070312 621.820312 "/>
<path fill-rule="nonzero" fill="rgb(100%, 100%, 100%)" fill-opacity="1" d="M 1654.300781 627.820312 C 1653.21875 625.859375 1460.300781 581.820312 1426.300781 581.820312 C 1426.300781 581.820312 1384.300781 578.820312 1370.300781 629.820312 C 1356.300781 680.820312 1338.300781 770.820312 1338.300781 770.820312 C 1338.300781 770.820312 1320.300781 850.820312 1353.300781 896.820312 C 1386.300781 942.820312 1486.300781 1049.820312 1554.300781 1216.820312 C 1622.300781 1383.820312 1655.300781 1496.820312 1655.300781 1496.820312 C 1655.300781 1496.820312 1666.300781 1524.820312 1686.300781 1534.820312 C 1706.300781 1544.820312 1742.300781 1524.820312 1760.300781 1496.820312 C 1778.300781 1468.820312 1816.300781 1380.820312 1813.300781 1285.820312 C 1810.300781 1190.820312 1770.300781 837.820312 1654.300781 627.820312 "/>
<path fill-rule="nonzero" fill="rgb(100%, 100%, 100%)" fill-opacity="1" d="M 1400.648438 703.140625 L 1406.160156 704.671875 C 1414.449219 706.96875 1423.03125 702.121094 1425.328125 693.839844 L 1435.28125 658.070312 C 1437.578125 649.78125 1432.730469 641.199219 1424.441406 638.890625 L 1418.929688 637.359375 C 1410.640625 635.058594 1402.058594 639.910156 1399.75 648.199219 L 1389.808594 683.960938 C 1387.511719 692.25 1392.359375 700.839844 1400.648438 703.140625 "/>
<path fill="none" stroke-width="80" stroke-linecap="butt" stroke-linejoin="miter" stroke="rgb(70.117188%, 70.117188%, 70.117188%)" stroke-opacity="1" stroke-miterlimit="10" d="M 14006.484375 13968.59375 L 14061.601562 13953.28125 C 14144.492188 13930.3125 14230.3125 13978.789062 14253.28125 14061.601562 L 14352.8125 14419.296875 C 14375.78125 14502.1875 14327.304688 14588.007812 14244.414062 14611.09375 L 14189.296875 14626.40625 C 14106.40625 14649.414062 14020.585938 14600.898438 13997.5 14518.007812 L 13898.085938 14160.390625 C 13875.117188 14077.5 13923.59375 13991.601562 14006.484375 13968.59375 Z M 14006.484375 13968.59375 " transform="matrix(0.1, 0, 0, -0.1, 0, 2100)"/>
<path fill-rule="nonzero" fill="rgb(100%, 100%, 100%)" fill-opacity="1" d="M 1469.570312 832.820312 C 1469.570312 860.988281 1446.730469 883.820312 1418.570312 883.820312 C 1390.398438 883.820312 1367.570312 860.988281 1367.570312 832.820312 C 1367.570312 804.660156 1390.398438 781.820312 1418.570312 781.820312 C 1446.730469 781.820312 1469.570312 804.660156 1469.570312 832.820312 "/>
<path fill="none" stroke-width="130" stroke-linecap="butt" stroke-linejoin="miter" stroke="rgb(70.117188%, 70.117188%, 70.117188%)" stroke-opacity="1" stroke-miterlimit="10" d="M 14695.703125 12671.796875 C 14695.703125 12390.117188 14467.304688 12161.796875 14185.703125 12161.796875 C 13903.984375 12161.796875 13675.703125 12390.117188 13675.703125 12671.796875 C 13675.703125 12953.398438 13903.984375 13181.796875 14185.703125 13181.796875 C 14467.304688 13181.796875 14695.703125 12953.398438 14695.703125 12671.796875 Z M 14695.703125 12671.796875 " transform="matrix(0.1, 0, 0, -0.1, 0, 2100)"/>
<path fill-rule="nonzero" fill="rgb(100%, 100%, 100%)" fill-opacity="1" d="M 1693.570312 832.820312 C 1693.570312 860.988281 1670.730469 883.820312 1642.570312 883.820312 C 1614.398438 883.820312 1591.570312 860.988281 1591.570312 832.820312 C 1591.570312 804.660156 1614.398438 781.820312 1642.570312 781.820312 C 1670.730469 781.820312 1693.570312 804.660156 1693.570312 832.820312 "/>
<path fill="none" stroke-width="130" stroke-linecap="butt" stroke-linejoin="miter" stroke="rgb(70.117188%, 70.117188%, 70.117188%)" stroke-opacity="1" stroke-miterlimit="10" d="M 16935.703125 12671.796875 C 16935.703125 12390.117188 16707.304688 12161.796875 16425.703125 12161.796875 C 16143.984375 12161.796875 15915.703125 12390.117188 15915.703125 12671.796875 C 15915.703125 12953.398438 16143.984375 13181.796875 16425.703125 13181.796875 C 16707.304688 13181.796875 16935.703125 12953.398438 16935.703125 12671.796875 Z M 16935.703125 12671.796875 " transform="matrix(0.1, 0, 0, -0.1, 0, 2100)"/>
<path fill-rule="nonzero" fill="rgb(100%, 100%, 100%)" fill-opacity="1" d="M 1579.570312 723.820312 C 1579.570312 751.988281 1556.730469 774.820312 1528.570312 774.820312 C 1500.398438 774.820312 1477.570312 751.988281 1477.570312 723.820312 C 1477.570312 695.660156 1500.398438 672.820312 1528.570312 672.820312 C 1556.730469 672.820312 1579.570312 695.660156 1579.570312 723.820312 "/>
<path fill="none" stroke-width="130" stroke-linecap="butt" stroke-linejoin="miter" stroke="rgb(70.117188%, 70.117188%, 70.117188%)" stroke-opacity="1" stroke-miterlimit="10" d="M 15795.703125 13761.796875 C 15795.703125 13480.117188 15567.304688 13251.796875 15285.703125 13251.796875 C 15003.984375 13251.796875 14775.703125 13480.117188 14775.703125 13761.796875 C 14775.703125 14043.398438 15003.984375 14271.796875 15285.703125 14271.796875 C 15567.304688 14271.796875 15795.703125 14043.398438 15795.703125 13761.796875 Z M 15795.703125 13761.796875 " transform="matrix(0.1, 0, 0, -0.1, 0, 2100)"/>
<path fill-rule="nonzero" fill="rgb(100%, 100%, 100%)" fill-opacity="1" d="M 1579.570312 945.820312 C 1579.570312 973.988281 1556.730469 996.820312 1528.570312 996.820312 C 1500.398438 996.820312 1477.570312 973.988281 1477.570312 945.820312 C 1477.570312 917.660156 1500.398438 894.820312 1528.570312 894.820312 C 1556.730469 894.820312 1579.570312 917.660156 1579.570312 945.820312 "/>
<path fill="none" stroke-width="130" stroke-linecap="butt" stroke-linejoin="miter" stroke="rgb(70.117188%, 70.117188%, 70.117188%)" stroke-opacity="1" stroke-miterlimit="10" d="M 15795.703125 11541.796875 C 15795.703125 11260.117188 15567.304688 11031.796875 15285.703125 11031.796875 C 15003.984375 11031.796875 14775.703125 11260.117188 14775.703125 11541.796875 C 14775.703125 11823.398438 15003.984375 12051.796875 15285.703125 12051.796875 C 15567.304688 12051.796875 15795.703125 11823.398438 15795.703125 11541.796875 Z M 15795.703125 11541.796875 " transform="matrix(0.1, 0, 0, -0.1, 0, 2100)"/>
<g clip-path="url(#clip-0)">
<g clip-path="url(#clip-1)">
<g clip-path="url(#clip-2)">
<path fill-rule="nonzero" fill="url(#linear-pattern-0)" d="M 727.847656 888.839844 L 1380.878906 888.839844 L 1380.878906 542.03125 L 727.847656 542.03125 Z M 727.847656 888.839844 "/>
</g>
</g>
</g>
<path fill-rule="nonzero" fill="rgb(100%, 100%, 100%)" fill-opacity="1" d="M 1057.289062 884.820312 L 1246 884.820312 C 1246 884.820312 1297.46875 884.820312 1310.589844 842.359375 C 1323.710938 799.890625 1362.058594 613.851562 1362.058594 613.851562 C 1362.058594 613.851562 1370.128906 589.578125 1342.878906 581.5 C 1315.640625 573.410156 992.203125 545.101562 766.152344 581.5 C 738.097656 586.011719 746.980469 613.851562 746.980469 613.851562 C 746.980469 613.851562 785.328125 799.890625 798.445312 842.359375 C 811.566406 884.820312 863.03125 884.820312 863.03125 884.820312 L 1057.289062 884.820312 "/>
</svg>
